G04*
G04 #@! TF.GenerationSoftware,Altium Limited,Altium Designer,21.2.2 (38)*
G04*
G04 Layer_Color=65535*
%FSLAX25Y25*%
%MOIN*%
G70*
G04*
G04 #@! TF.SameCoordinates,8B9A036C-55B3-4DDA-9E79-EC33CF3C9B41*
G04*
G04*
G04 #@! TF.FilePolarity,Positive*
G04*
G01*
G75*
%ADD10C,0.00984*%
%ADD11C,0.00787*%
%ADD12C,0.02362*%
%ADD13C,0.00591*%
%ADD14C,0.00600*%
%ADD15C,0.01575*%
%ADD16C,0.01000*%
%ADD17R,0.03866X0.07284*%
%ADD18R,0.07284X0.03866*%
%ADD19R,0.10698X0.03736*%
G36*
X462287Y235846D02*
X458290D01*
Y240849D01*
X462287D01*
Y235846D01*
D02*
G37*
G36*
X442787D02*
X438773D01*
Y240857D01*
X442787D01*
Y235846D01*
D02*
G37*
G36*
X462287Y225847D02*
X458297D01*
Y230848D01*
X462287D01*
Y225847D01*
D02*
G37*
G36*
X442787D02*
X438779D01*
Y230848D01*
X442787D01*
Y225847D01*
D02*
G37*
G36*
X462287Y215846D02*
X458309D01*
Y220834D01*
X462287D01*
Y215846D01*
D02*
G37*
G36*
X442787D02*
X438784D01*
Y220845D01*
X442787D01*
Y215846D01*
D02*
G37*
D10*
X102854Y112795D02*
G03*
X102854Y112795I-492J0D01*
G01*
X111476Y181535D02*
G03*
X111476Y181535I-492J0D01*
G01*
X498524Y215551D02*
G03*
X498524Y215551I-492J0D01*
G01*
D11*
X123484Y181496D02*
G03*
X128484Y181496I2500J0D01*
G01*
X97047Y116929D02*
X98622D01*
X104134Y122835D02*
Y130709D01*
X102559D02*
X104134D01*
X91535D02*
X93110D01*
X91535Y122835D02*
Y130709D01*
X211024Y309055D02*
X214961D01*
X220079Y303937D01*
X193307D02*
X198425Y309055D01*
X202362D01*
X220079Y282284D02*
Y303937D01*
X211024Y282284D02*
X220079D01*
X193307D02*
X202362D01*
X193307D02*
Y303937D01*
X288386Y107874D02*
Y122736D01*
Y107874D02*
X292913D01*
X301575D02*
X306102D01*
Y122736D01*
X291240Y125591D02*
X292913D01*
X288386Y122736D02*
X291240Y125591D01*
X303248D02*
X306102Y122736D01*
X301575Y125591D02*
X303248D01*
X280709Y315945D02*
X285925D01*
X292323Y309547D01*
X258858D02*
X265256Y315945D01*
X270472D01*
X292323Y282480D02*
Y309547D01*
X280709Y282480D02*
X292323D01*
X258858D02*
X270472D01*
X258858D02*
Y309547D01*
X271161Y174902D02*
X287894D01*
X271161Y167618D02*
Y174902D01*
X287894Y167618D02*
Y174902D01*
X271161Y167618D02*
X287894D01*
X265453Y115650D02*
Y132382D01*
X258169D02*
X265453D01*
X258169Y115650D02*
X265453D01*
X258169D02*
Y132382D01*
X85630Y79724D02*
X100492D01*
X85630Y75197D02*
Y79724D01*
Y62008D02*
Y66535D01*
Y62008D02*
X100492D01*
X103346Y75197D02*
Y76870D01*
X100492Y79724D02*
X103346Y76870D01*
X100492Y62008D02*
X103346Y64862D01*
Y66535D01*
X115551Y141339D02*
Y181496D01*
X136417Y141339D02*
Y181496D01*
X115551D02*
X123484D01*
X128484D02*
X136417D01*
X115551Y141339D02*
X136417D01*
X47146Y138780D02*
X62008D01*
Y143307D01*
Y151969D02*
Y156496D01*
X47146D02*
X62008D01*
X44291Y141634D02*
Y143307D01*
Y141634D02*
X47146Y138780D01*
X44291Y153642D02*
X47146Y156496D01*
X44291Y151969D02*
Y153642D01*
X192815Y160433D02*
X207677D01*
Y164961D01*
Y173622D02*
Y178150D01*
X192815D02*
X207677D01*
X189961Y163287D02*
Y164961D01*
Y163287D02*
X192815Y160433D01*
X189961Y175295D02*
X192815Y178150D01*
X189961Y173622D02*
Y175295D01*
X184547Y290729D02*
Y298832D01*
X177658Y290729D02*
Y298832D01*
X406906Y168006D02*
X408933Y165980D01*
X409828Y170928D02*
X411854Y168902D01*
X406906Y168006D02*
X409828Y170928D01*
X490000Y212992D02*
X508504D01*
X490000Y172835D02*
X508504D01*
X490000D02*
Y212992D01*
X508504Y172835D02*
Y212992D01*
X506535Y172835D02*
Y212992D01*
X466535Y152362D02*
X470472D01*
X466535Y158661D02*
X470472D01*
X500000Y242913D02*
X503937D01*
X500000Y249213D02*
X503937D01*
X432579Y186722D02*
Y187294D01*
X437500Y186722D02*
Y187294D01*
X475098Y355807D02*
X489469D01*
X475098Y368602D02*
X489469D01*
X397352Y258366D02*
X397924D01*
X397352Y253445D02*
X397924D01*
X375698Y181595D02*
X376270D01*
X375698Y176673D02*
X376270D01*
X349901Y90065D02*
Y90637D01*
X354823Y90065D02*
Y90637D01*
X349902Y202270D02*
Y202842D01*
X354823Y202270D02*
Y202842D01*
X326279Y90265D02*
Y90837D01*
X331201Y90265D02*
Y90837D01*
X322342Y202470D02*
Y203042D01*
X327264Y202470D02*
Y203042D01*
X237903Y325295D02*
X238475D01*
X237903Y320374D02*
X238475D01*
X174911Y200295D02*
X175483D01*
X174911Y205217D02*
X175483D01*
X67421Y99908D02*
Y100480D01*
X62500Y99908D02*
Y100480D01*
X67421Y196564D02*
Y197136D01*
X62500Y196564D02*
Y197136D01*
X43799Y196564D02*
Y197136D01*
X38878Y196564D02*
Y197136D01*
X446260Y330315D02*
Y350787D01*
X435630Y330315D02*
X446260D01*
X435630D02*
Y350787D01*
X446260D01*
X440945D02*
Y357236D01*
Y323866D02*
Y330315D01*
X435906Y345669D02*
X445984D01*
X395276Y324213D02*
X415748D01*
Y313583D02*
Y324213D01*
X395276Y313583D02*
X415748D01*
X395276D02*
Y324213D01*
X388827Y318898D02*
X395276D01*
X415748D02*
X422197D01*
X400394Y313858D02*
Y323937D01*
X393307Y367520D02*
X413780D01*
Y356890D02*
Y367520D01*
X393307Y356890D02*
X413780D01*
X393307D02*
Y367520D01*
X386858Y362205D02*
X393307D01*
X413780D02*
X420228D01*
X398425Y357165D02*
Y367244D01*
X371457Y330315D02*
Y350787D01*
X360827Y330315D02*
X371457D01*
X360827D02*
Y350787D01*
X371457D01*
X366142D02*
Y357236D01*
Y323866D02*
Y330315D01*
X361102Y345669D02*
X371181D01*
X330157Y292913D02*
Y313386D01*
X319449D02*
X330157D01*
X319449Y292913D02*
Y313386D01*
Y292913D02*
X330157D01*
X531311Y208858D02*
X539555D01*
X531311Y216339D02*
X539555D01*
X389475Y297244D02*
X405801D01*
X389475Y277559D02*
X405801D01*
X378347Y83071D02*
Y104725D01*
Y83071D02*
X387402D01*
X396063D02*
X405118D01*
Y104725D01*
X383465Y109843D02*
X387402D01*
X378347Y104725D02*
X383465Y109843D01*
X400000D02*
X405118Y104725D01*
X396063Y109843D02*
X400000D01*
D12*
X120669Y177559D02*
G03*
X120669Y177559I-1181J0D01*
G01*
D13*
X429882Y159449D02*
G03*
X429882Y159449I-11496J0D01*
G01*
X57480Y93307D02*
G03*
X57480Y93307I-12008J0D01*
G01*
D14*
X448287Y242347D02*
G03*
X453287Y242347I2500J0D01*
G01*
X448287D02*
G03*
X453287Y242347I2500J0D01*
G01*
X442787Y214347D02*
Y242347D01*
Y214347D02*
X458287D01*
Y242347D01*
X442787Y218347D02*
Y242347D01*
X453287D02*
X458287D01*
X453287D02*
X458287D01*
X442787D02*
X448287D01*
X442787D02*
X448287D01*
D15*
X258859Y323031D02*
X292323D01*
D16*
X46276Y353393D02*
Y357392D01*
X48275Y359391D01*
X50274Y357392D01*
Y353393D01*
Y356392D01*
X46276D01*
X56272Y357392D02*
X53273D01*
X52274Y356392D01*
Y354393D01*
X53273Y353393D01*
X56272D01*
X59271D02*
X61271D01*
X62270Y354393D01*
Y356392D01*
X61271Y357392D01*
X59271D01*
X58272Y356392D01*
Y354393D01*
X59271Y353393D01*
X64270Y357392D02*
Y354393D01*
X65269Y353393D01*
X68269D01*
Y357392D01*
X70268Y353393D02*
X73267D01*
X74266Y354393D01*
X73267Y355392D01*
X71267D01*
X70268Y356392D01*
X71267Y357392D01*
X74266D01*
X77266Y358391D02*
Y357392D01*
X76266D01*
X78265D01*
X77266D01*
Y354393D01*
X78265Y353393D01*
X81264D02*
X83264D01*
X82264D01*
Y357392D01*
X81264D01*
X90261D02*
X87262D01*
X86263Y356392D01*
Y354393D01*
X87262Y353393D01*
X90261D01*
X98259Y357392D02*
Y353393D01*
Y355392D01*
X99259Y356392D01*
X100258Y357392D01*
X101258D01*
X107256Y353393D02*
X105256D01*
X104257Y354393D01*
Y356392D01*
X105256Y357392D01*
X107256D01*
X108256Y356392D01*
Y355392D01*
X104257D01*
X110255Y353393D02*
X112254D01*
X111255D01*
Y359391D01*
X110255D01*
X116253Y357392D02*
X118252D01*
X119252Y356392D01*
Y353393D01*
X116253D01*
X115253Y354393D01*
X116253Y355392D01*
X119252D01*
X121251Y357392D02*
Y354393D01*
X122251Y353393D01*
X125250D01*
Y352393D01*
X124250Y351394D01*
X123251D01*
X125250Y353393D02*
Y357392D01*
X62085Y68990D02*
X61086Y69990D01*
X59086D01*
X58087Y68990D01*
Y64992D01*
X59086Y63992D01*
X61086D01*
X62085Y64992D01*
Y66991D01*
X60086D01*
X64085Y63992D02*
Y69990D01*
X68083Y63992D01*
Y69990D01*
X70083D02*
Y63992D01*
X73082D01*
X74081Y64992D01*
Y68990D01*
X73082Y69990D01*
X70083D01*
X493126Y304273D02*
Y298275D01*
X497125D01*
X500124Y302274D02*
X502123D01*
X503123Y301274D01*
Y298275D01*
X500124D01*
X499124Y299275D01*
X500124Y300274D01*
X503123D01*
X505122Y298275D02*
Y302274D01*
X506122D01*
X507122Y301274D01*
Y298275D01*
Y301274D01*
X508121Y302274D01*
X509121Y301274D01*
Y298275D01*
X511120Y296276D02*
Y302274D01*
X514119D01*
X515119Y301274D01*
Y299275D01*
X514119Y298275D01*
X511120D01*
X521117D02*
X517118D01*
X521117Y302274D01*
Y303273D01*
X520117Y304273D01*
X518118D01*
X517118Y303273D01*
X493126Y318053D02*
Y312054D01*
X497125D01*
X500124Y316053D02*
X502123D01*
X503123Y315054D01*
Y312054D01*
X500124D01*
X499124Y313054D01*
X500124Y314054D01*
X503123D01*
X505122Y312054D02*
Y316053D01*
X506122D01*
X507122Y315054D01*
Y312054D01*
Y315054D01*
X508121Y316053D01*
X509121Y315054D01*
Y312054D01*
X511120Y310055D02*
Y316053D01*
X514119D01*
X515119Y315054D01*
Y313054D01*
X514119Y312054D01*
X511120D01*
X517118D02*
X519118D01*
X518118D01*
Y318053D01*
X517118Y317053D01*
X554150Y215659D02*
Y209661D01*
X558148D01*
X560148D02*
X562147D01*
X561147D01*
Y215659D01*
X560148Y214660D01*
X554150Y249031D02*
Y255030D01*
X558148Y249031D01*
Y255030D01*
X556180Y356392D02*
X555180Y357392D01*
X553181D01*
X552181Y356392D01*
Y355392D01*
X553181Y354393D01*
X555180D01*
X556180Y353393D01*
Y352393D01*
X555180Y351394D01*
X553181D01*
X552181Y352393D01*
X558179Y351394D02*
X560179D01*
X559179D01*
Y357392D01*
X558179Y356392D01*
X262773Y331836D02*
X261774Y332836D01*
X259774D01*
X258775Y331836D01*
Y327837D01*
X259774Y326838D01*
X261774D01*
X262773Y327837D01*
X264773Y332836D02*
X268772D01*
Y331836D01*
X264773Y327837D01*
Y326838D01*
X306087Y135858D02*
X305087Y136857D01*
X303088D01*
X302088Y135858D01*
Y131859D01*
X303088Y130859D01*
X305087D01*
X306087Y131859D01*
X312085Y136857D02*
X310086Y135858D01*
X308086Y133858D01*
Y131859D01*
X309086Y130859D01*
X311085D01*
X312085Y131859D01*
Y132859D01*
X311085Y133858D01*
X308086D01*
X107206Y121017D02*
Y127015D01*
X110205D01*
X111205Y126015D01*
Y124016D01*
X110205Y123016D01*
X107206D01*
X109206D02*
X111205Y121017D01*
X116203D02*
Y127015D01*
X113204Y124016D01*
X117203D01*
X188574Y188236D02*
X187574Y189236D01*
X185574D01*
X184575Y188236D01*
Y184238D01*
X185574Y183238D01*
X187574D01*
X188574Y184238D01*
X190573Y188236D02*
X191572Y189236D01*
X193572D01*
X194572Y188236D01*
Y187236D01*
X193572Y186237D01*
X192572D01*
X193572D01*
X194572Y185237D01*
Y184238D01*
X193572Y183238D01*
X191572D01*
X190573Y184238D01*
X93489Y90582D02*
X92489Y91582D01*
X90490D01*
X89490Y90582D01*
Y86583D01*
X90490Y85584D01*
X92489D01*
X93489Y86583D01*
X99487Y85584D02*
X95488D01*
X99487Y89582D01*
Y90582D01*
X98487Y91582D01*
X96487D01*
X95488Y90582D01*
X55118Y167354D02*
X54118Y168353D01*
X52119D01*
X51119Y167354D01*
Y163355D01*
X52119Y162355D01*
X54118D01*
X55118Y163355D01*
X57117Y162355D02*
X59117D01*
X58117D01*
Y168353D01*
X57117Y167354D01*
X244033Y128983D02*
Y122985D01*
X247032D01*
X248031Y123985D01*
Y127984D01*
X247032Y128983D01*
X244033D01*
X250031Y122985D02*
X252030D01*
X251030D01*
Y128983D01*
X250031Y127984D01*
X182273Y307636D02*
X181274Y308636D01*
X179274D01*
X178275Y307636D01*
Y303638D01*
X179274Y302638D01*
X181274D01*
X182273Y303638D01*
X187272Y302638D02*
Y308636D01*
X184273Y305637D01*
X188272D01*
X411073Y175738D02*
Y179736D01*
X410074Y180736D01*
X408075D01*
X407075Y179736D01*
Y175738D01*
X408075Y174738D01*
X410074D01*
X409074Y176737D02*
X411073Y174738D01*
X410074D02*
X411073Y175738D01*
X413073Y174738D02*
X415072D01*
X414073D01*
Y180736D01*
X413073Y179736D01*
X495002Y227409D02*
Y222410D01*
X496001Y221410D01*
X498001D01*
X499000Y222410D01*
Y227409D01*
X504998Y221410D02*
X501000D01*
X504998Y225409D01*
Y226409D01*
X503999Y227409D01*
X501999D01*
X501000Y226409D01*
X446789Y252999D02*
Y248001D01*
X447788Y247001D01*
X449788D01*
X450787Y248001D01*
Y252999D01*
X452787Y247001D02*
X454786D01*
X453786D01*
Y252999D01*
X452787Y251999D01*
X461006Y140702D02*
Y146700D01*
X464005D01*
X465005Y145700D01*
Y143701D01*
X464005Y142701D01*
X461006D01*
X463006D02*
X465005Y140702D01*
X467004D02*
X469004D01*
X468004D01*
Y146700D01*
X467004Y145700D01*
X476002Y146700D02*
X474002Y145700D01*
X472003Y143701D01*
Y141701D01*
X473002Y140702D01*
X475002D01*
X476002Y141701D01*
Y142701D01*
X475002Y143701D01*
X472003D01*
X492275Y254638D02*
Y260636D01*
X495274D01*
X496274Y259636D01*
Y257637D01*
X495274Y256637D01*
X492275D01*
X494274D02*
X496274Y254638D01*
X498273D02*
X500272D01*
X499272D01*
Y260636D01*
X498273Y259636D01*
X507270Y260636D02*
X503271D01*
Y257637D01*
X505271Y258636D01*
X506270D01*
X507270Y257637D01*
Y255638D01*
X506270Y254638D01*
X504271D01*
X503271Y255638D01*
X443290Y184009D02*
Y190007D01*
X446289D01*
X447289Y189007D01*
Y187008D01*
X446289Y186008D01*
X443290D01*
X445289D02*
X447289Y184009D01*
X449288D02*
X451287D01*
X450288D01*
Y190007D01*
X449288Y189007D01*
X457285Y184009D02*
Y190007D01*
X454286Y187008D01*
X458285D01*
X474786Y376922D02*
Y382920D01*
X477785D01*
X478785Y381921D01*
Y379921D01*
X477785Y378922D01*
X474786D01*
X476785D02*
X478785Y376922D01*
X480784D02*
X482783D01*
X481784D01*
Y382920D01*
X480784Y381921D01*
X485782D02*
X486782Y382920D01*
X488781D01*
X489781Y381921D01*
Y380921D01*
X488781Y379921D01*
X487782D01*
X488781D01*
X489781Y378922D01*
Y377922D01*
X488781Y376922D01*
X486782D01*
X485782Y377922D01*
X390140Y241095D02*
Y247094D01*
X393139D01*
X394139Y246094D01*
Y244094D01*
X393139Y243095D01*
X390140D01*
X392140D02*
X394139Y241095D01*
X396138D02*
X398138D01*
X397138D01*
Y247094D01*
X396138Y246094D01*
X405135Y241095D02*
X401137D01*
X405135Y245094D01*
Y246094D01*
X404136Y247094D01*
X402136D01*
X401137Y246094D01*
X368075Y187438D02*
Y193436D01*
X371074D01*
X372074Y192436D01*
Y190437D01*
X371074Y189437D01*
X368075D01*
X370074D02*
X372074Y187438D01*
X374073D02*
X376072D01*
X375073D01*
Y193436D01*
X374073Y192436D01*
X379071Y187438D02*
X381071D01*
X380071D01*
Y193436D01*
X379071Y192436D01*
X348075Y102238D02*
Y108236D01*
X351074D01*
X352074Y107236D01*
Y105237D01*
X351074Y104237D01*
X348075D01*
X350074D02*
X352074Y102238D01*
X354073D02*
X356072D01*
X355072D01*
Y108236D01*
X354073Y107236D01*
X359071D02*
X360071Y108236D01*
X362070D01*
X363070Y107236D01*
Y103237D01*
X362070Y102238D01*
X360071D01*
X359071Y103237D01*
Y107236D01*
X348075Y214438D02*
Y220436D01*
X351074D01*
X352074Y219436D01*
Y217437D01*
X351074Y216437D01*
X348075D01*
X350074D02*
X352074Y214438D01*
X354073Y215438D02*
X355072Y214438D01*
X357072D01*
X358072Y215438D01*
Y219436D01*
X357072Y220436D01*
X355072D01*
X354073Y219436D01*
Y218437D01*
X355072Y217437D01*
X358072D01*
X324375Y102438D02*
Y108436D01*
X327374D01*
X328374Y107436D01*
Y105437D01*
X327374Y104437D01*
X324375D01*
X326374D02*
X328374Y102438D01*
X330373Y107436D02*
X331372Y108436D01*
X333372D01*
X334372Y107436D01*
Y106437D01*
X333372Y105437D01*
X334372Y104437D01*
Y103437D01*
X333372Y102438D01*
X331372D01*
X330373Y103437D01*
Y104437D01*
X331372Y105437D01*
X330373Y106437D01*
Y107436D01*
X331372Y105437D02*
X333372D01*
X320475Y214638D02*
Y220636D01*
X323474D01*
X324474Y219636D01*
Y217637D01*
X323474Y216637D01*
X320475D01*
X322474D02*
X324474Y214638D01*
X326473Y220636D02*
X330472D01*
Y219636D01*
X326473Y215637D01*
Y214638D01*
X230275Y331138D02*
Y337136D01*
X233274D01*
X234274Y336136D01*
Y334137D01*
X233274Y333137D01*
X230275D01*
X232274D02*
X234274Y331138D01*
X240272Y337136D02*
X238272Y336136D01*
X236273Y334137D01*
Y332137D01*
X237273Y331138D01*
X239272D01*
X240272Y332137D01*
Y333137D01*
X239272Y334137D01*
X236273D01*
X167275Y211038D02*
Y217036D01*
X170274D01*
X171274Y216036D01*
Y214037D01*
X170274Y213037D01*
X167275D01*
X169274D02*
X171274Y211038D01*
X177272Y217036D02*
X173273D01*
Y214037D01*
X175272Y215037D01*
X176272D01*
X177272Y214037D01*
Y212037D01*
X176272Y211038D01*
X174273D01*
X173273Y212037D01*
X67836Y111174D02*
Y117172D01*
X70835D01*
X71835Y116173D01*
Y114173D01*
X70835Y113174D01*
X67836D01*
X69836D02*
X71835Y111174D01*
X73834Y116173D02*
X74834Y117172D01*
X76833D01*
X77833Y116173D01*
Y115173D01*
X76833Y114173D01*
X75834D01*
X76833D01*
X77833Y113174D01*
Y112174D01*
X76833Y111174D01*
X74834D01*
X73834Y112174D01*
X60675Y208738D02*
Y214736D01*
X63674D01*
X64674Y213736D01*
Y211737D01*
X63674Y210737D01*
X60675D01*
X62674D02*
X64674Y208738D01*
X70672D02*
X66673D01*
X70672Y212737D01*
Y213736D01*
X69672Y214736D01*
X67672D01*
X66673Y213736D01*
X36975Y208738D02*
Y214736D01*
X39974D01*
X40973Y213736D01*
Y211737D01*
X39974Y210737D01*
X36975D01*
X38974D02*
X40973Y208738D01*
X42973D02*
X44972D01*
X43973D01*
Y214736D01*
X42973Y213736D01*
X24498Y107237D02*
Y113235D01*
X26498Y111236D01*
X28497Y113235D01*
Y107237D01*
X34495Y112236D02*
X33495Y113235D01*
X31496D01*
X30496Y112236D01*
Y108237D01*
X31496Y107237D01*
X33495D01*
X34495Y108237D01*
X36494Y107237D02*
X38494D01*
X37494D01*
Y113235D01*
X36494Y112236D01*
X89459Y182133D02*
Y176135D01*
X92458D01*
X93458Y177135D01*
Y181133D01*
X92458Y182133D01*
X89459D01*
X95457Y176135D02*
Y180133D01*
X97456Y182133D01*
X99456Y180133D01*
Y176135D01*
Y179134D01*
X95457D01*
X101455Y176135D02*
X103454D01*
X102455D01*
Y182133D01*
X101455Y181133D01*
X449726Y341582D02*
Y335584D01*
X452725D01*
X453725Y336583D01*
Y340582D01*
X452725Y341582D01*
X449726D01*
X455724D02*
X459723D01*
Y340582D01*
X455724Y336583D01*
Y335584D01*
X402482Y335676D02*
Y329678D01*
X405481D01*
X406481Y330678D01*
Y334677D01*
X405481Y335676D01*
X402482D01*
X412479D02*
X408480D01*
Y332677D01*
X410479Y333677D01*
X411479D01*
X412479Y332677D01*
Y330678D01*
X411479Y329678D01*
X409480D01*
X408480Y330678D01*
X398545Y378983D02*
Y372985D01*
X401544D01*
X402544Y373985D01*
Y377984D01*
X401544Y378983D01*
X398545D01*
X408542D02*
X406542Y377984D01*
X404543Y375984D01*
Y373985D01*
X405543Y372985D01*
X407542D01*
X408542Y373985D01*
Y374985D01*
X407542Y375984D01*
X404543D01*
X347364Y339613D02*
Y333615D01*
X350363D01*
X351362Y334615D01*
Y338614D01*
X350363Y339613D01*
X347364D01*
X356361Y333615D02*
Y339613D01*
X353362Y336614D01*
X357361D01*
X333584Y306149D02*
Y300151D01*
X336583D01*
X337583Y301150D01*
Y305149D01*
X336583Y306149D01*
X333584D01*
X339582Y305149D02*
X340582Y306149D01*
X342581D01*
X343581Y305149D01*
Y304149D01*
X342581Y303150D01*
X341582D01*
X342581D01*
X343581Y302150D01*
Y301150D01*
X342581Y300151D01*
X340582D01*
X339582Y301150D01*
X276498Y162448D02*
Y156450D01*
X279497D01*
X280496Y157449D01*
Y161448D01*
X279497Y162448D01*
X276498D01*
X286494Y156450D02*
X282496D01*
X286494Y160449D01*
Y161448D01*
X285495Y162448D01*
X283495D01*
X282496Y161448D01*
X535871Y226409D02*
X534871Y227409D01*
X532872D01*
X531873Y226409D01*
Y222410D01*
X532872Y221410D01*
X534871D01*
X535871Y222410D01*
X537871Y221410D02*
X539870D01*
X538870D01*
Y227409D01*
X537871Y226409D01*
X542869D02*
X543869Y227409D01*
X545868D01*
X546868Y226409D01*
Y222410D01*
X545868Y221410D01*
X543869D01*
X542869Y222410D01*
Y226409D01*
X371048Y299243D02*
X370048Y300243D01*
X368049D01*
X367049Y299243D01*
Y295245D01*
X368049Y294245D01*
X370048D01*
X371048Y295245D01*
X373047D02*
X374047Y294245D01*
X376046D01*
X377046Y295245D01*
Y299243D01*
X376046Y300243D01*
X374047D01*
X373047Y299243D01*
Y298244D01*
X374047Y297244D01*
X377046D01*
X390733Y122078D02*
X389733Y123078D01*
X387734D01*
X386734Y122078D01*
Y118079D01*
X387734Y117080D01*
X389733D01*
X390733Y118079D01*
X392732Y122078D02*
X393732Y123078D01*
X395731D01*
X396731Y122078D01*
Y121078D01*
X395731Y120079D01*
X396731Y119079D01*
Y118079D01*
X395731Y117080D01*
X393732D01*
X392732Y118079D01*
Y119079D01*
X393732Y120079D01*
X392732Y121078D01*
Y122078D01*
X393732Y120079D02*
X395731D01*
X205693Y322866D02*
X204694Y323865D01*
X202694D01*
X201694Y322866D01*
Y318867D01*
X202694Y317867D01*
X204694D01*
X205693Y318867D01*
X211691Y323865D02*
X207693D01*
Y320866D01*
X209692Y321866D01*
X210692D01*
X211691Y320866D01*
Y318867D01*
X210692Y317867D01*
X208692D01*
X207693Y318867D01*
D17*
X273095Y171260D02*
D03*
D18*
X261811Y117583D02*
D03*
D19*
X324808Y294781D02*
D03*
M02*
