G04*
G04 #@! TF.GenerationSoftware,Altium Limited,Altium Designer,21.2.2 (38)*
G04*
G04 Layer_Physical_Order=1*
G04 Layer_Color=255*
%FSLAX25Y25*%
%MOIN*%
G70*
G04*
G04 #@! TF.SameCoordinates,8B9A036C-55B3-4DDA-9E79-EC33CF3C9B41*
G04*
G04*
G04 #@! TF.FilePolarity,Positive*
G04*
G01*
G75*
%ADD20R,0.06299X0.06299*%
%ADD21R,0.04331X0.06299*%
%ADD22R,0.06299X0.12402*%
%ADD23R,0.06299X0.09252*%
%ADD24R,0.07874X0.15748*%
%ADD25R,0.09252X0.06299*%
%ADD26R,0.03379X0.03175*%
%ADD27R,0.05118X0.07087*%
%ADD28R,0.05938X0.04750*%
%ADD29R,0.07087X0.15748*%
%ADD30R,0.04750X0.05938*%
%ADD31R,0.02190X0.07111*%
%ADD32R,0.04540X0.21666*%
%ADD43C,0.04331*%
%ADD44R,0.04331X0.04331*%
%ADD48R,0.03543X0.03543*%
%ADD49C,0.03543*%
%ADD50C,0.06299*%
%ADD51R,0.06299X0.06299*%
%ADD54C,0.01968*%
%ADD55C,0.01095*%
%ADD56C,0.01588*%
%ADD57C,0.05315*%
%ADD58R,0.05906X0.05906*%
%ADD59C,0.05906*%
%ADD60C,0.05150*%
%ADD61C,0.06496*%
%ADD62C,0.03937*%
%ADD63C,0.02362*%
D20*
X97835Y129528D02*
D03*
X440945Y361961D02*
D03*
X366142D02*
D03*
D21*
X102362Y118110D02*
D03*
X93307D02*
D03*
D22*
X206693Y307087D02*
D03*
Y284252D02*
D03*
X391732Y85040D02*
D03*
Y107874D02*
D03*
D23*
X297244Y108268D02*
D03*
Y125197D02*
D03*
D24*
X275591Y313189D02*
D03*
Y285236D02*
D03*
D25*
X86024Y70866D02*
D03*
X102953D02*
D03*
X61614Y147638D02*
D03*
X44685D02*
D03*
X207283Y169291D02*
D03*
X190354D02*
D03*
D26*
X181102Y292316D02*
D03*
Y297244D02*
D03*
D27*
X474606Y155512D02*
D03*
X462402D02*
D03*
X508071Y246063D02*
D03*
X495866D02*
D03*
D28*
X435039Y182871D02*
D03*
Y191145D02*
D03*
X352362Y86214D02*
D03*
Y94488D02*
D03*
Y198419D02*
D03*
Y206693D02*
D03*
X328740Y86414D02*
D03*
Y94688D02*
D03*
X324803Y198619D02*
D03*
Y206893D02*
D03*
X64961Y104331D02*
D03*
Y96056D02*
D03*
Y200988D02*
D03*
Y192713D02*
D03*
X41339Y200988D02*
D03*
Y192713D02*
D03*
D29*
X494488Y362205D02*
D03*
X470079D02*
D03*
D30*
X393501Y255906D02*
D03*
X401775D02*
D03*
X371847Y179134D02*
D03*
X380121D02*
D03*
X234052Y322835D02*
D03*
X242326D02*
D03*
X179334Y202756D02*
D03*
X171060D02*
D03*
D31*
X529035Y212599D02*
D03*
X541831D02*
D03*
D32*
X385728Y287402D02*
D03*
X409547D02*
D03*
D43*
X418386Y154449D02*
D03*
X423386Y159449D02*
D03*
D44*
X413386D02*
D03*
D48*
X41732Y96457D02*
D03*
D49*
X49213D02*
D03*
D50*
X498032Y192914D02*
D03*
Y182914D02*
D03*
X440945Y319142D02*
D03*
X426921Y318898D02*
D03*
X424953Y362205D02*
D03*
X366142Y319142D02*
D03*
D51*
X498032Y202914D02*
D03*
X384102Y318898D02*
D03*
X382134Y362205D02*
D03*
D54*
X494488Y362205D02*
X517717D01*
X494488Y362205D02*
X494488Y362205D01*
X515748Y246063D02*
X525591Y255906D01*
Y301181D01*
X508071Y246063D02*
X515748D01*
X541831Y212599D02*
X541831Y212598D01*
X549213D01*
X84575Y70866D02*
Y89638D01*
X76772Y70866D02*
X86023D01*
X86024Y70866D01*
X418475Y114838D02*
Y154449D01*
X206693Y307038D02*
X229575D01*
X206693D02*
Y307087D01*
Y299638D02*
Y307038D01*
X93307Y125000D02*
Y141638D01*
Y118110D02*
Y125000D01*
X137475Y202838D02*
X171060D01*
X376924Y106838D02*
X391732D01*
X242326Y322238D02*
X274575D01*
X431975Y168038D02*
Y182871D01*
X491075Y357838D02*
X494488D01*
X380121Y176738D02*
X396097D01*
X263779Y108268D02*
X297244D01*
X261811Y106299D02*
X263779Y108268D01*
X418386Y154449D02*
X418475D01*
X391732Y88095D02*
X418475Y114838D01*
X391732Y85040D02*
Y88095D01*
X418386Y154449D02*
Y234602D01*
X426921Y243138D01*
Y318898D01*
X181102Y284238D02*
X183875Y281465D01*
Y193638D02*
Y281465D01*
X166654Y176417D02*
X183875Y193638D01*
X140984Y176417D02*
X166654D01*
X44685Y99409D02*
Y147638D01*
X41732Y96457D02*
X44685Y99409D01*
X41339Y150984D02*
Y192713D01*
Y150984D02*
X44685Y147638D01*
X64961Y150984D02*
Y192713D01*
X61614Y147638D02*
X64961Y150984D01*
X61614Y107677D02*
Y147638D01*
Y107677D02*
X64961Y104331D01*
X97835Y129528D02*
X110984Y142677D01*
Y146417D01*
X93307Y125000D02*
X97835Y129528D01*
X143858Y169291D02*
X190354D01*
X140984Y166417D02*
X143858Y169291D01*
X207283D02*
X259842D01*
X261811Y171260D01*
X283268Y320866D02*
X324803D01*
X275591Y313189D02*
X283268Y320866D01*
X214830Y206893D02*
X324803D01*
X198775Y190838D02*
X214830Y206893D01*
X198775Y161638D02*
Y190838D01*
X168875Y131738D02*
X198775Y161638D01*
X129575Y131738D02*
X168875D01*
X124275Y137038D02*
X129575Y131738D01*
X124275Y137038D02*
Y178738D01*
X102025Y200988D02*
X124275Y178738D01*
X64961Y200988D02*
X102025D01*
X435287Y225950D02*
Y228347D01*
X430075Y220738D02*
X435287Y225950D01*
X430075Y196110D02*
Y220738D01*
Y196110D02*
X435039Y191145D01*
X495866Y238138D02*
Y246063D01*
X462402Y155512D02*
Y214961D01*
X465787Y218347D01*
X494488Y357838D02*
Y362205D01*
X491075Y189870D02*
Y357838D01*
Y189870D02*
X498032Y182914D01*
X301575Y198619D02*
X324803D01*
X297244Y194288D02*
X301575Y198619D01*
X297244Y171260D02*
Y194288D01*
X409547Y287402D02*
Y321210D01*
X434475Y346138D01*
X473975D01*
X481475Y353638D01*
Y365038D01*
X488775Y372338D01*
X516575D01*
X529035Y359877D01*
X435287Y238347D02*
Y325825D01*
X433875Y327238D02*
X435287Y325825D01*
X425175Y327238D02*
X433875D01*
X419575Y321638D02*
X425175Y327238D01*
X419575Y261393D02*
Y321638D01*
X364875Y206693D02*
X419575Y261393D01*
X352362Y206693D02*
X364875D01*
X171060Y202756D02*
Y202838D01*
X132575Y197938D02*
X137475Y202838D01*
X132575Y139538D02*
Y197938D01*
Y139538D02*
X132975Y139138D01*
X141575D01*
X146175Y143738D01*
Y161227D01*
X140984Y166417D02*
X146175Y161227D01*
X61614Y147638D02*
X87307D01*
X93307Y141638D01*
X204299Y297244D02*
X206693Y299638D01*
X371847Y179134D02*
Y193638D01*
X367066Y198419D02*
X371847Y193638D01*
X352362Y198419D02*
X367066D01*
X297244Y119788D02*
Y125197D01*
Y119788D02*
X322344Y94688D01*
X328740D01*
X474606Y155512D02*
Y159488D01*
X498032Y182914D01*
X84575Y70866D02*
X86024D01*
X78156Y96056D02*
X84575Y89638D01*
X64961Y96056D02*
X78156D01*
X179334Y198897D02*
Y202756D01*
X174975Y194538D02*
X179334Y198897D01*
X140675Y194538D02*
X174975D01*
X135775Y189638D02*
X140675Y194538D01*
X135775Y161627D02*
Y189638D01*
Y161627D02*
X140984Y156417D01*
X312168Y86414D02*
X328740D01*
X297244Y101338D02*
X312168Y86414D01*
X297244Y101338D02*
Y108268D01*
X532275Y182914D02*
X541831Y192469D01*
X498032Y182914D02*
X532275D01*
X380121Y176738D02*
Y179134D01*
X396097Y176738D02*
X413386Y159449D01*
X234052Y311515D02*
Y322835D01*
X229575Y307038D02*
X234052Y311515D01*
X431975Y182871D02*
X435039D01*
X423386Y159449D02*
X431975Y168038D01*
X177175Y275738D02*
Y295844D01*
Y275738D02*
X179334Y273579D01*
Y202756D02*
Y273579D01*
X391732Y106838D02*
Y107874D01*
X364575Y94488D02*
X376924Y106838D01*
X352362Y94488D02*
X364575D01*
X206693Y284252D02*
Y291198D01*
X205575Y292316D02*
X206693Y291198D01*
X275591Y313189D02*
Y321222D01*
X274575Y322238D02*
X275591Y321222D01*
X242326Y322238D02*
Y322835D01*
X508071Y202953D02*
Y246063D01*
X498032Y192914D02*
X508071Y202953D01*
X372549Y85040D02*
X391732D01*
X371375Y86214D02*
X372549Y85040D01*
X352362Y86214D02*
X371375D01*
X340575D02*
X352362D01*
X340375Y86414D02*
X340575Y86214D01*
X328740Y86414D02*
X340375D01*
X57275Y96056D02*
X64961D01*
X56875Y96457D02*
X57275Y96056D01*
X49213Y96457D02*
X56875D01*
X300272Y285433D02*
X324803D01*
X300075Y285236D02*
X300272Y285433D01*
X275591Y285236D02*
X300075D01*
X241559D02*
X275591D01*
X240575Y284252D02*
X241559Y285236D01*
X206693Y284252D02*
X240575D01*
X140984Y146417D02*
Y156417D01*
X102362Y94728D02*
Y118110D01*
Y94728D02*
X102953Y94138D01*
Y70866D02*
Y94138D01*
X261811Y141732D02*
Y171260D01*
X110984Y156417D02*
Y166417D01*
X340575Y94488D02*
X352362D01*
X340375Y94688D02*
X340575Y94488D01*
X328740Y94688D02*
X340375D01*
X338675Y198419D02*
X352362D01*
X338475Y198619D02*
X338675Y198419D01*
X324803Y198619D02*
X338475D01*
X297244Y125197D02*
Y171260D01*
X385728Y275510D02*
Y287402D01*
Y275510D02*
X393501Y267738D01*
Y255906D02*
Y267738D01*
X384102Y303864D02*
Y318898D01*
Y303864D02*
X385728Y302238D01*
Y287402D02*
Y302238D01*
X409547Y275510D02*
Y287402D01*
X401775Y267738D02*
X409547Y275510D01*
X401775Y255906D02*
Y267738D01*
X455619Y362205D02*
X470079D01*
X455375Y361961D02*
X455619Y362205D01*
X440945Y361961D02*
X455375D01*
X338675Y206693D02*
X352362D01*
X338475Y206893D02*
X338675Y206693D01*
X324803Y206893D02*
X338475D01*
X41339Y200988D02*
X64961D01*
D55*
X529035Y314961D02*
Y359877D01*
Y251969D02*
Y314961D01*
X525591D02*
X529035D01*
Y212599D02*
Y251969D01*
X549213D01*
X541831Y192469D02*
Y212599D01*
D56*
X181102Y284238D02*
Y292316D01*
Y297244D02*
X204299D01*
X178575D02*
X181102D01*
X177175Y295844D02*
X178575Y297244D01*
X181102Y292316D02*
X205575D01*
D57*
X261811Y171260D02*
D03*
X297244D02*
D03*
X261811Y141732D02*
D03*
Y106299D02*
D03*
D58*
X110984Y176417D02*
D03*
D59*
Y166417D02*
D03*
Y156417D02*
D03*
Y146417D02*
D03*
X140984Y176417D02*
D03*
Y166417D02*
D03*
Y156417D02*
D03*
Y146417D02*
D03*
D60*
X435287Y238347D02*
D03*
Y228347D02*
D03*
Y218347D02*
D03*
X465787D02*
D03*
Y228347D02*
D03*
Y238347D02*
D03*
D61*
X324803Y320866D02*
D03*
Y285433D02*
D03*
D62*
X547244Y354331D02*
D03*
X549213Y251969D02*
D03*
Y212598D02*
D03*
X76772Y70866D02*
D03*
D63*
X517717Y362205D02*
D03*
X525591Y314961D02*
D03*
Y301181D02*
D03*
X495866Y238138D02*
D03*
M02*
