M48
;Layer_Color=9474304
;FILE_FORMAT=2:5
INCH,LZ
;TYPE=PLATED
T1F00S00C0.01181
T2F00S00C0.01575
T3F00S00C0.02362
T4F00S00C0.03150
T5F00S00C0.03346
T6F00S00C0.03543
T7F00S00C0.03937
T8F00S00C0.04134
T9F00S00C0.04528
%
T01
X0076772Y0070866
X0495866Y0238138
X0525591Y0301181
Y0314961
X0517717Y0362205
X0547244Y0354331
X0549213Y0251969
Y0212598
T02
X0041732Y0096457
X0049213
T03
X0418386Y0154449
X0413386Y0159449
X0423386
T04
X0435287Y0218347
Y0228347
Y0238347
X0465787
Y0228347
Y0218347
T05
X0261811Y0106299
Y0141732
Y017126
X0297244
T06
X0110984Y0146417
Y0156417
Y0166417
Y0176417
X0140984
Y0166417
Y0156417
Y0146417
T07
X0498032Y0182914
Y0192914
Y0202914
T08
X0366142Y0319142
Y0361961
X0382134Y0362205
X0424953
X0440945Y0361961
Y0319142
X0426921Y0318898
X0384102
T09
X0324803Y0285433
Y0320866
M30
