G04*
G04 #@! TF.GenerationSoftware,Altium Limited,Altium Designer,21.2.2 (38)*
G04*
G04 Layer_Color=8388736*
%FSLAX25Y25*%
%MOIN*%
G70*
G04*
G04 #@! TF.SameCoordinates,8B9A036C-55B3-4DDA-9E79-EC33CF3C9B41*
G04*
G04*
G04 #@! TF.FilePolarity,Negative*
G04*
G01*
G75*
%ADD20R,0.06299X0.06299*%
%ADD26R,0.03379X0.03175*%
%ADD28R,0.05938X0.04750*%
%ADD29R,0.07087X0.15748*%
%ADD30R,0.04750X0.05938*%
%ADD31R,0.02190X0.07111*%
%ADD32R,0.04540X0.21666*%
%ADD33R,0.07099X0.07099*%
%ADD34R,0.05131X0.07099*%
%ADD35R,0.07099X0.13202*%
%ADD36R,0.07099X0.10052*%
%ADD37R,0.08674X0.16548*%
%ADD38R,0.10052X0.07099*%
%ADD39R,0.05918X0.07887*%
%ADD40C,0.06115*%
%ADD41R,0.06706X0.06706*%
%ADD42C,0.06706*%
%ADD43C,0.04331*%
%ADD44R,0.04331X0.04331*%
%ADD45R,0.07099X0.07099*%
%ADD46C,0.07099*%
%ADD47C,0.05950*%
%ADD48R,0.03543X0.03543*%
%ADD49C,0.03543*%
%ADD50C,0.06299*%
%ADD51R,0.06299X0.06299*%
%ADD52C,0.07296*%
%ADD53C,0.03162*%
D20*
X440945Y361961D02*
D03*
X366142D02*
D03*
D26*
X181102Y292316D02*
D03*
Y297244D02*
D03*
D28*
X435039Y182871D02*
D03*
Y191145D02*
D03*
X352362Y86214D02*
D03*
Y94488D02*
D03*
Y198419D02*
D03*
Y206693D02*
D03*
X328740Y86414D02*
D03*
Y94688D02*
D03*
X324803Y198619D02*
D03*
Y206893D02*
D03*
X64961Y104331D02*
D03*
Y96056D02*
D03*
Y200988D02*
D03*
Y192713D02*
D03*
X41339Y200988D02*
D03*
Y192713D02*
D03*
D29*
X494488Y362205D02*
D03*
X470079D02*
D03*
D30*
X393501Y255906D02*
D03*
X401775D02*
D03*
X371847Y179134D02*
D03*
X380121D02*
D03*
X234052Y322835D02*
D03*
X242326D02*
D03*
X179334Y202756D02*
D03*
X171060D02*
D03*
D31*
X529035Y212599D02*
D03*
X541831D02*
D03*
D32*
X385728Y287402D02*
D03*
X409547D02*
D03*
D33*
X97835Y129528D02*
D03*
D34*
X102362Y118110D02*
D03*
X93307D02*
D03*
D35*
X206693Y307087D02*
D03*
Y284252D02*
D03*
X391732Y85040D02*
D03*
Y107874D02*
D03*
D36*
X297244Y108268D02*
D03*
Y125197D02*
D03*
D37*
X275591Y313189D02*
D03*
Y285236D02*
D03*
D38*
X86024Y70866D02*
D03*
X102953D02*
D03*
X61614Y147638D02*
D03*
X44685D02*
D03*
X207283Y169291D02*
D03*
X190354D02*
D03*
D39*
X474606Y155512D02*
D03*
X462402D02*
D03*
X508071Y246063D02*
D03*
X495866D02*
D03*
D40*
X261811Y171260D02*
D03*
X297244D02*
D03*
X261811Y141732D02*
D03*
Y106299D02*
D03*
D41*
X110984Y176417D02*
D03*
D42*
Y166417D02*
D03*
Y156417D02*
D03*
Y146417D02*
D03*
X140984Y176417D02*
D03*
Y166417D02*
D03*
Y156417D02*
D03*
Y146417D02*
D03*
D43*
X418386Y154449D02*
D03*
X423386Y159449D02*
D03*
D44*
X413386D02*
D03*
D45*
X498032Y202914D02*
D03*
D46*
Y192914D02*
D03*
Y182914D02*
D03*
D47*
X435287Y238347D02*
D03*
Y228347D02*
D03*
Y218347D02*
D03*
X465787D02*
D03*
Y228347D02*
D03*
Y238347D02*
D03*
D48*
X41732Y96457D02*
D03*
D49*
X49213D02*
D03*
D50*
X440945Y319142D02*
D03*
X426921Y318898D02*
D03*
X424953Y362205D02*
D03*
X366142Y319142D02*
D03*
D51*
X384102Y318898D02*
D03*
X382134Y362205D02*
D03*
D52*
X324803Y320866D02*
D03*
Y285433D02*
D03*
D53*
X495866Y238138D02*
D03*
M02*
