G04*
G04 #@! TF.GenerationSoftware,Altium Limited,Altium Designer,21.2.2 (38)*
G04*
G04 Layer_Color=16711935*
%FSLAX25Y25*%
%MOIN*%
G70*
G04*
G04 #@! TF.SameCoordinates,8B9A036C-55B3-4DDA-9E79-EC33CF3C9B41*
G04*
G04*
G04 #@! TF.FilePolarity,Negative*
G04*
G01*
G75*
%ADD20R,0.06299X0.06299*%
%ADD40C,0.06115*%
%ADD41R,0.06706X0.06706*%
%ADD42C,0.06706*%
%ADD43C,0.04331*%
%ADD44R,0.04331X0.04331*%
%ADD45R,0.07099X0.07099*%
%ADD46C,0.07099*%
%ADD47C,0.05950*%
%ADD48R,0.03543X0.03543*%
%ADD49C,0.03543*%
%ADD50C,0.06299*%
%ADD51R,0.06299X0.06299*%
%ADD52C,0.07296*%
%ADD53C,0.03162*%
D20*
X440945Y361961D02*
D03*
X366142D02*
D03*
D40*
X261811Y171260D02*
D03*
X297244D02*
D03*
X261811Y141732D02*
D03*
Y106299D02*
D03*
D41*
X110984Y176417D02*
D03*
D42*
Y166417D02*
D03*
Y156417D02*
D03*
Y146417D02*
D03*
X140984Y176417D02*
D03*
Y166417D02*
D03*
Y156417D02*
D03*
Y146417D02*
D03*
D43*
X418386Y154449D02*
D03*
X423386Y159449D02*
D03*
D44*
X413386D02*
D03*
D45*
X498032Y202914D02*
D03*
D46*
Y192914D02*
D03*
Y182914D02*
D03*
D47*
X435287Y238347D02*
D03*
Y228347D02*
D03*
Y218347D02*
D03*
X465787D02*
D03*
Y228347D02*
D03*
Y238347D02*
D03*
D48*
X41732Y96457D02*
D03*
D49*
X49213D02*
D03*
D50*
X440945Y319142D02*
D03*
X426921Y318898D02*
D03*
X424953Y362205D02*
D03*
X366142Y319142D02*
D03*
D51*
X384102Y318898D02*
D03*
X382134Y362205D02*
D03*
D52*
X324803Y320866D02*
D03*
Y285433D02*
D03*
D53*
X495866Y238138D02*
D03*
M02*
